<svg xmlns="http://www.w3.org/2000/svg" version="1.1" xmlns:xlink="http://www.w3.org/1999/xlink" xmlns:svgjs="http://svgjs.dev/svgjs" width="1440" height="560" preserveAspectRatio="none" viewBox="0 0 1440 560"><g mask="url(&quot;#SvgjsMask1000&quot;)" fill="none"><rect width="1440" height="560" x="0" y="0" fill="#0e2a47"></rect><path d="M0,505.12C96.658,515.559,204.103,494.537,275.218,428.247C344.075,364.062,329.787,253.909,363.701,166.097C394.937,85.218,482.135,18.208,466.517,-67.075C450.87,-152.516,353.292,-192.366,287.641,-249.242C231.638,-297.76,179.849,-350.094,110.307,-375.673C37.416,-402.484,-41.151,-415.297,-116.873,-398.031C-195.293,-380.15,-259.77,-330.523,-320.249,-277.497C-388.798,-217.395,-487.507,-161.631,-490.422,-70.512C-493.385,22.127,-379.673,71.881,-334.005,152.535C-293.848,223.457,-295.543,313.49,-239.492,372.658C-175.456,440.256,-92.576,495.122,0,505.12" fill="#0b2239"></path><path d="M1440 1024.675C1536.744 1038.885 1650.9470000000001 1067.981 1726.817 1006.296 1803.416 944.018 1761.636 815.341 1805.966 727.131 1853.026 633.489 1983.366 585.321 1990.9099999999999 480.791 1998.451 376.301 1919.699 282.21 1843.247 210.58499999999998 1771.0140000000001 142.91199999999998 1671.493 122.86900000000003 1577.094 93.10199999999998 1480.699 62.70600000000002 1381.514 2.3619999999999663 1285.788 34.803999999999974 1190.432 67.12 1141.276 170.41899999999998 1091.208 257.77 1048.54 332.211 1039.07 416.00800000000004 1019.4169999999999 499.529 997.611 592.196 932.194 687.2860000000001 969.531 774.856 1006.847 862.377 1118.629 884.6859999999999 1202.661 929.307 1279.52 970.119 1353.901 1012.028 1440 1024.675" fill="#113255"></path></g><defs><mask id="SvgjsMask1000"><rect width="1440" height="560" fill="#ffffff"></rect></mask></defs></svg>